<svg id="Layer_1" data-name="Layer 1" xmlns="http://www.w3.org/2000/svg" viewBox="0 0 34 34"><defs><style>.cls-1{fill:#fff;fill-rule:evenodd;}</style></defs><path class="cls-1" d="M63.94,34h0Zm.11,0Zm-.17,0h0Zm.23,0h0Zm-.28,0h0Zm.33,0Zm.06,0Zm-.45,0h0Zm.5,0Zm-.55,0h0Zm.61,0h0Zm-.66,0h0Zm-.07,0h0Zm.78,0Zm-.83,0h0Zm.89,0h0Zm0,0h0Zm-1,0h0Zm0,0h0Zm1.1,0h0Zm0,0h0Zm-1.22,0h0Zm-.05,0h0Zm1.33,0h0Zm-1.38,0h0Zm1.43,0h0Zm-1.49,0h0Zm1.55,0h0Zm-1.6,0h0Zm1.65,0h0Zm-1.7,0h0Zm1.75,0h0Zm.06,0h0Zm-1.86,0h0ZM65,34h0Zm-2,0h0Zm0,0h0ZM65,34h0Zm-2.13,0h0Zm2.18,0h0Zm.06,0h0Zm-2.31,0h0Zm-.05,0h0Zm2.41,0h0Zm-2.46,0h0Zm2.51,0h0Zm-2.57,0h0Zm2.63,0h0Zm0,0h0Zm-2.73,0h0Zm-.05,0h0Zm2.83,0h0Zm-2.88,0Zm2.94,0Zm0,0Zm-3,0h0Zm0,0h0Zm3.16,0h0Zm-4.24-.14a17,17,0,1,1,5.32,0V21.91h4L71.37,17H66.66V13.81a2.45,2.45,0,0,1,2.77-2.65h2.14V7a26.4,26.4,0,0,0-3.81-.33c-3.88,0-6.42,2.35-6.42,6.61V17H57v4.91h4.31Z" transform="translate(-47 0)"/></svg>