<svg id="Layer_1" data-name="Layer 1" xmlns="http://www.w3.org/2000/svg" viewBox="0 0 34 34"><defs><style>.cls-1{fill:#fff;fill-rule:evenodd;}</style></defs><path class="cls-1" d="M64,0A17,17,0,1,1,47,17,17,17,0,0,1,64,0Zm0,6.38c-2.89,0-3.25,0-4.38.06A7.87,7.87,0,0,0,57,6.93,5.49,5.49,0,0,0,53.93,10a7.87,7.87,0,0,0-.49,2.58c0,1.13-.07,1.49-.07,4.38s0,3.25.07,4.38A7.87,7.87,0,0,0,53.93,24,5.49,5.49,0,0,0,57,27.07a7.87,7.87,0,0,0,2.58.49c1.13.05,1.49.07,4.38.07s3.25,0,4.38-.07A7.87,7.87,0,0,0,71,27.07,5.49,5.49,0,0,0,74.07,24a7.87,7.87,0,0,0,.49-2.58c0-1.13.07-1.49.07-4.38s0-3.25-.07-4.38A7.87,7.87,0,0,0,74.07,10,5.49,5.49,0,0,0,71,6.93a7.87,7.87,0,0,0-2.58-.49C67.25,6.39,66.89,6.38,64,6.38Zm0,1.91c2.84,0,3.17,0,4.29.06a5.87,5.87,0,0,1,2,.37,3.47,3.47,0,0,1,2,2,5.87,5.87,0,0,1,.37,2c0,1.12.06,1.45.06,4.29s0,3.17-.06,4.29a5.87,5.87,0,0,1-.37,2,3.47,3.47,0,0,1-2,2,5.87,5.87,0,0,1-2,.37c-1.12.05-1.45.06-4.29.06s-3.17,0-4.29-.06a5.87,5.87,0,0,1-2-.37,3.47,3.47,0,0,1-2-2,5.87,5.87,0,0,1-.37-2c-.05-1.12-.06-1.45-.06-4.29s0-3.17.06-4.29a5.87,5.87,0,0,1,.37-2,3.47,3.47,0,0,1,2-2,5.87,5.87,0,0,1,2-.37C60.83,8.3,61.16,8.29,64,8.29Zm0,3.25A5.46,5.46,0,1,0,69.46,17,5.47,5.47,0,0,0,64,11.54Zm0,9A3.54,3.54,0,1,1,67.54,17,3.53,3.53,0,0,1,64,20.54Zm7-9.21a1.28,1.28,0,1,1-1.28-1.28A1.27,1.27,0,0,1,71,11.33Z" transform="translate(-47)"/></svg>